# xmcd CD database file
#
# Track frame offsets:
#	150
#	25399
#	56843
#	83968
#	111668
#	133975
#	169032
#	193641
#	227858
#	248230
#
# Disc length: 3650 seconds
#
# Revision: 0
# Processed by: cddbd v1.5.2PL0 Copyright (c) Steve Scherf et al.
# Submitted via: CDex 1.70beta2
#
DISCID=930e400a
DTITLE=Serge Delaite Trio - Comme Bach...
DYEAR=2004
DGENRE=Jazz
TTITLE0=Petit prélude BWV 939 - I remember you
TTITLE1=Invention No. 8 - Just squeeze me
TTITLE2=Invention No. 16 - Moon and sand
TTITLE3=Petit prélude BWV 934 - Take the "A" Train
TTITLE4=Petit prélude BWV 934 - Fly me to the moon
TTITLE5=Invention No. 1 - Too close for comfort
TTITLE6=Invention No. 4 - In a sentimental mood
TTITLE7=Petit prélude BWV 933 UT - Caravan
TTITLE8=Toccata en ré mineur - Armando's rumba
TTITLE9=Concerto italien - C jam blues
EXTD=YEAR: 2004
EXTT0=
EXTT1=
EXTT2=
EXTT3=
EXTT4=
EXTT5=
EXTT6=
EXTT7=
EXTT8=
EXTT9=
PLAYORDER=
